<svg width="24" height="22" viewBox="0 0 24 22" fill="none" xmlns="http://www.w3.org/2000/svg">
<path d="M3.75 5C3.33579 5 3 4.66421 3 4.25C3 3.83579 3.33579 3.5 3.75 3.5H20.25C20.6642 3.5 21 3.83579 21 4.25C21 4.66421 20.6642 5 20.25 5H3.75Z" fill="#444444"/>
<path d="M6.75 2C6.33579 2 6 1.66421 6 1.25C6 0.835786 6.33579 0.5 6.75 0.5H17.25C17.6642 0.5 18 0.835786 18 1.25C18 1.66421 17.6642 2 17.25 2H6.75Z" fill="#444444"/>
<path d="M0 19.25C0 20.4926 1.00736 21.5 2.25 21.5H21.75C22.9926 21.5 24 20.4926 24 19.25V8.75C24 7.50736 22.9926 6.5 21.75 6.5H2.25C1.00736 6.5 0 7.50736 0 8.75V19.25ZM2.25 20C1.83579 20 1.5 19.6642 1.5 19.25V8.75C1.5 8.33579 1.83579 8 2.25 8H21.75C22.1642 8 22.5 8.33579 22.5 8.75V19.25C22.5 19.6642 22.1642 20 21.75 20H2.25Z" fill="#444444"/>
</svg>
