<svg width="24" height="22" viewBox="0 0 24 22" fill="none" xmlns="http://www.w3.org/2000/svg">
<path d="M6.75 12.5C7.99264 12.5 9 11.4926 9 10.25C9 9.00736 7.99264 8 6.75 8C5.50736 8 4.5 9.00736 4.5 10.25C4.5 11.4926 5.50736 12.5 6.75 12.5Z" fill="#444444"/>
<path d="M21 18.5C21 20.1569 19.6569 21.5 18 21.5H3C1.34315 21.5 0 20.1569 0 18.5V6.5C0 4.84392 1.3419 3.50125 2.99769 3.5C2.99769 1.84315 4.34083 0.5 5.99769 0.5H20.9977C22.6545 0.5 23.9977 1.84315 23.9977 3.5V15.5C23.9977 17.1561 22.6558 18.4988 21 18.5ZM20.9977 2H5.99769C5.16926 2 4.49769 2.67157 4.49769 3.5L18 3.5C19.6569 3.5 21 4.84315 21 6.5V17C21.8274 16.9988 22.4977 16.3277 22.4977 15.5V3.5C22.4977 2.67157 21.8261 2 20.9977 2ZM3 5C2.17157 5 1.5 5.67157 1.5 6.5V18.5L5.46967 14.9697C5.72247 14.7169 6.11856 14.6777 6.41603 14.876L10.4044 17.5349L15.9697 11.9697C16.1979 11.7414 16.5467 11.6848 16.8354 11.8292L19.5 14.75V6.5C19.5 5.67157 18.8284 5 18 5H3Z" fill="#444444"/>
</svg>
